<svg xmlns="http://www.w3.org/2000/svg" width="167.392" height="34.881" viewBox="0 0 167.392 34.881">
  <g id="Groupe_174" data-name="Groupe 174" transform="translate(-136 -40.61)">
    <g id="Groupe_35" data-name="Groupe 35" transform="translate(175.052 40.61)">
      <g id="Groupe_34" data-name="Groupe 34">
        <g id="Groupe_28" data-name="Groupe 28" transform="translate(66.025 8.983)">
          <path id="Tracé_37" data-name="Tracé 37" d="M506.4,296.776h-10.79c-5.941,0-7.057-4.885-7.162-8h-.007l0-.29.012-9.542c.157-3.756,2.289-8,7.863-8h14.567l-.055.336c-.034.207-.871,5.059-4.423,5.059h-7.7c-2.129,0-3.451,1.736-3.451,4.533v7.006c0,3.154,2.564,3.494,3.666,3.494H510.89l-.073.35C510.773,291.925,509.715,296.776,506.4,296.776Zm-17.383-8.419,0,.122c.054,3.521,1.242,7.717,6.59,7.717H506.4c2.38,0,3.466-3.174,3.765-4.247H498.914c-1,0-4.246-.294-4.246-4.074v-7.006c0-3.154,1.544-5.112,4.03-5.112h7.7c2.569,0,3.531-3.179,3.78-4.236H496.307c-5.294,0-7.236,4.157-7.291,7.716l0,.217Z" transform="translate(-488.433 -270.941)" fill="#fff"/>
        </g>
        <g id="Groupe_29" data-name="Groupe 29" transform="translate(47.529)">
          <path id="Tracé_38" data-name="Tracé 38" d="M442.193,277.405h-5.547a6.319,6.319,0,0,1-6.594-6.47V248.321c0-5.232,6.4-5.709,6.47-5.712l.309-.021,0,25.562c0,3.169.164,3.841,4.88,3.841h4.967l-.062.342C446.578,272.54,445.653,277.405,442.193,277.405Zm-5.943-34.188c-1.229.152-5.616.984-5.619,5.1v22.614a5.758,5.758,0,0,0,6.015,5.891h5.547c2.492,0,3.506-3.19,3.775-4.255h-4.256c-4.956,0-5.46-.838-5.46-4.42Z" transform="translate(-430.052 -242.588)" fill="#fff"/>
        </g>
        <g id="Groupe_30" data-name="Groupe 30" transform="translate(102.931 8.919)">
          <path id="Tracé_39" data-name="Tracé 39" d="M622.4,296.7H612.366c-4.937,0-7.441-2.63-7.441-7.815,0-5.641,2.5-8.5,7.441-8.5h11.027V279.5c0-2.231-1.817-3.23-3.618-3.23l-12.31,0,.231-.5c.329-1.528,1.424-5.034,4.458-5.034h11.138c5.2,0,7.043,4.321,7.043,8.02v9.587C630.277,292.2,628.165,296.7,622.4,296.7Zm-10.034-15.736c-4.552,0-6.861,2.665-6.861,7.921,0,4.8,2.308,7.236,6.861,7.236H622.4c5.344,0,7.3-4.19,7.355-7.779v-9.583c0-3.432-1.693-7.441-6.464-7.441H612.153c-2.5,0-3.506,2.923-3.85,4.374l11.472,0c2.089,0,4.2,1.178,4.2,3.809v1.466Zm7.4,10.785h-5.615a2.728,2.728,0,0,1-2-.706,3.384,3.384,0,0,1-.767-2.461c0-.872.49-3.245,2.666-3.245h9.929v1.622C623.972,289.96,622.4,291.751,619.762,291.751Zm-5.719-5.833c-1.7,0-2.086,1.944-2.086,2.625a2.936,2.936,0,0,0,.6,2.092,2.178,2.178,0,0,0,1.594.536h5.615c2.341,0,3.63-1.5,3.63-4.211v-1.043Z" transform="translate(-604.925 -270.741)" fill="#fff"/>
        </g>
        <g id="Groupe_31" data-name="Groupe 31" transform="translate(18.596 8.919)">
          <path id="Tracé_40" data-name="Tracé 40" d="M358.258,296.7H345.77c-5.2,0-7.044-4.321-7.044-8.02V279.1c.057-3.856,2.17-8.354,7.934-8.354h10.034c4.937,0,7.44,2.63,7.44,7.815,0,5.64-2.5,8.5-7.44,8.5H345.669v.886c0,2.232,1.817,3.231,3.617,3.231l13.653,0-.22.5C362.388,293.2,361.294,296.7,358.258,296.7Zm-11.6-25.382c-5.343,0-7.3,4.19-7.355,7.779v9.583c0,3.432,1.693,7.441,6.464,7.441h12.488c2.505,0,3.508-2.925,3.851-4.375l-12.824,0c-2.089,0-4.2-1.178-4.2-3.81v-1.466h11.606c4.552,0,6.861-2.665,6.861-7.92,0-4.8-2.309-7.236-6.861-7.236Zm8.357,10.785h-9.929v-1.622c0-3,1.573-4.792,4.209-4.792h5.615a2.719,2.719,0,0,1,2,.708,3.388,3.388,0,0,1,.768,2.457C357.685,279.731,357.2,282.105,355.018,282.105Zm-9.349-.579h9.349c1.7,0,2.087-1.945,2.087-2.626a2.942,2.942,0,0,0-.6-2.091,2.171,2.171,0,0,0-1.594-.538H349.3c-2.341,0-3.63,1.5-3.63,4.212Z" transform="translate(-338.726 -270.741)" fill="#fff"/>
        </g>
        <g id="Groupe_32" data-name="Groupe 32" transform="translate(91.984 8.928)">
          <path id="Tracé_41" data-name="Tracé 41" d="M577.139,296.659h-6.768V270.77h6.768Zm-6.189-.58h5.609v-24.73H570.95Z" transform="translate(-570.371 -270.77)" fill="#fff"/>
        </g>
        <g id="Groupe_33" data-name="Groupe 33">
          <path id="Tracé_42" data-name="Tracé 42" d="M292.167,277.405h-5.545a6.319,6.319,0,0,1-6.6-6.47V248.321c0-5.232,6.4-5.709,6.469-5.712l.309-.021v8.982h7.026v5.4h-7.026V268.15c0,3.169.164,3.841,4.88,3.841h5l-.1.367C296.529,272.564,295.161,277.405,292.167,277.405Zm-5.943-34.188c-1.229.152-5.616.984-5.618,5.1v22.614a5.759,5.759,0,0,0,6.015,5.891h5.545c2.125,0,3.375-3.162,3.744-4.255h-4.226c-4.957,0-5.46-.838-5.46-4.42V256.4h7.026V252.15h-7.026Z" transform="translate(-280.027 -242.588)" fill="#fff"/>
        </g>
      </g>
    </g>
    <g id="Groupe_36" data-name="Groupe 36" transform="translate(136 40.919)">
      <path id="Tracé_43" data-name="Tracé 43" d="M208,271.9H194.875v25.241h7.3V277.528h3.957c2.809,0,4.06,1.873,4.06,4.372v15.244h6.728V279.4C216.92,272.209,208,271.9,208,271.9Z" transform="translate(-182.8 -262.925)" fill="#d60084"/>
      <path id="Tracé_44" data-name="Tracé 44" d="M162.318,243.565h-4.125A1.431,1.431,0,0,0,156.761,245v7.546h6.988V245A1.432,1.432,0,0,0,162.318,243.565Z" transform="translate(-156.761 -243.565)" fill="#d60084"/>
      <path id="Tracé_45" data-name="Tracé 45" d="M156.761,279.269v17.874h6.988V271.9S156.761,273.6,156.761,279.269Z" transform="translate(-156.761 -262.925)" fill="#d60084"/>
    </g>
  </g>
</svg>
