<svg xmlns="http://www.w3.org/2000/svg" id="Layer_2" data-name="Layer 2" viewBox="0 0 405.33 122.52"><defs><style>.cls-1{fill:#fff}</style></defs><g id="Layer_1-2" data-name="Layer 1"><path d="M158.47 68.5v1.9l4.06.48c.36.04.64.35.64.72l.06 19.48c0 10.72-3.56 16.16-10.58 16.16-3.79 0-6.74-1.23-8.77-3.66-2-2.38-3.01-6.24-3.01-11.46V71.6c0-.37.27-.68.64-.72l4.05-.48v-1.9h-14.24v1.9l3.63.42c.37.04.65.36.64.73l-.11 20.36c0 5.88 1.29 10.29 3.83 13.13 2.53 2.82 6.69 4.25 12.35 4.25 4.71 0 8.4-1.52 10.94-4.51 2.58-3.02 3.88-7.63 3.88-13.7V71.6c0-.36.27-.67.63-.72l3.47-.47v-1.92h-12.11Zm44.37 38.14a.734.734 0 0 1-.63-.73V91.08c0-4.14-.59-7.17-1.77-9.02-1.13-1.76-3.08-2.62-5.98-2.62-1.76 0-3.68.41-5.73 1.21-2.04.81-3.74 1.81-5.07 2.98-.21.19-.52.24-.79.13a.75.75 0 0 1-.43-.67v-3.35l-.76-.26-7.41 2.2v1.34l3.36 2.03c.22.13.35.37.35.62v20.24c0 .36-.26.67-.61.73l-2.89.45v1.44h12.55v-1.45l-3.11-.49a.73.73 0 0 1-.61-.72V85.68c0-.23.12-.45.3-.58a11.29 11.29 0 0 1 3.54-1.76c1.27-.38 2.44-.57 3.46-.57 1.68 0 3 .34 3.93 1.01.94.69 1.58 1.74 1.93 3.13.3 1.28.46 2.99.46 5.23v13.74c0 .36-.26.66-.62.72l-3.37.5v1.44h13.32v-1.43l-3.42-.46Zm17.35-.06a.731.731 0 0 1-.63-.72V79.79l-.86-.3-7.85 2.34v1.06l3.3 2.41c.18.14.3.35.3.58v19.98c0 .36-.26.67-.62.72l-3.59.52v1.43h13.47v-1.43l-3.53-.52Zm-.88-40.56c-.57-.58-1.42-.85-2.58-.85-1.07 0-2.02.39-2.91 1.18-.88.78-1.29 1.67-1.29 2.74 0 .96.32 1.71.99 2.3.68.61 1.49.9 2.44.9 1.14 0 2.11-.37 2.96-1.13.83-.74 1.22-1.65 1.22-2.79 0-1.01-.27-1.78-.85-2.35m26.3 14.08v2.17l2.79.5a.728.728 0 0 1 .57.95L244.3 97.5l-1.96 6.54a.73.73 0 0 1-.7.51c-.31-.01-.6-.19-.7-.51l-2.13-6.73-5.3-13.52c-.08-.2-.07-.43.04-.61.1-.18.27-.32.49-.37l2.38-.53v-2.19H224.8v2.19l2.04.43c.23.05.43.2.52.42l11.13 25.83h4.12l10.32-25.65c.09-.22.27-.38.51-.44l2.39-.57v-2.21h-10.25Zm18.69 14.03h18.69c.18-1.2.27-2.48.27-3.81 0-3.55-.91-6.33-2.73-8.25-1.8-1.92-4.37-2.89-7.64-2.89-2.85 0-5.41.66-7.62 1.97s-3.96 3.16-5.2 5.49c-1.25 2.34-1.89 5.04-1.89 8 0 4.5 1.18 8.1 3.48 10.67 2.29 2.57 5.59 3.88 9.81 3.92 2.1 0 4.27-.29 6.43-.88 1.85-.51 3.33-1.16 4.38-1.95l-.63-1.44c-.88.36-1.96.67-3.2.92-1.58.32-3.08.48-4.47.48-3.27 0-5.84-1.04-7.63-3.09-1.77-2.02-2.7-4.84-2.78-8.4 0-.19.07-.39.2-.52.14-.14.32-.22.52-.22m1.82-10.44c.72-.9 1.54-1.59 2.46-2.05.92-.46 1.95-.69 3.06-.69 2.06 0 3.55.8 4.41 2.36 1.27 1.25 1.9 3.26 1.9 6.13 0 .84-.02 1.45-.06 1.88a.72.72 0 0 1-.72.66h-12.81c-.2 0-.4-.09-.53-.23a.71.71 0 0 1-.18-.55c.26-3.23 1.1-5.76 2.48-7.51m31.97 1.7c1.61-1.06 3.65-1.59 6.04-1.59 1.48 0 2.81.2 3.99.61v-4.88c-.36-.04-.96-.08-1.95-.08-1.39 0-2.95.51-4.64 1.51-1.67 1-2.78 2.05-3.31 3.12-.15.3-.49.47-.82.39a.728.728 0 0 1-.56-.71v-4.01l-.81-.26-7.37 2.2v1.33l3.42 2.03c.22.14.36.37.36.63v20.19c0 .36-.26.66-.62.72l-3.32.5v1.44h16.32v-1.41l-6.41-.64a.726.726 0 0 1-.65-.72V86.01c0-.25.12-.48.32-.61M332.8 97a9.132 9.132 0 0 0-2.61-2.46c-1.08-.67-2.58-1.45-4.43-2.3-2.05-.99-3.51-1.71-4.33-2.16-.9-.47-1.7-1.1-2.39-1.88-.76-.85-1.15-1.85-1.15-2.97 0-1.53.59-2.7 1.78-3.48 1.08-.72 2.5-1.08 4.21-1.08 1.84 0 3.49.76 4.9 2.25.07.07.12.15.15.23l1.08 2.66h1.9v-5.15c-.89-.37-2.01-.7-3.36-.98-3.45-.73-6.84-.71-10.03.38-1.68.58-3.08 1.48-4.16 2.65-1.05 1.15-1.57 2.51-1.57 4.16 0 1.99.68 3.64 2.08 5.01 1.47 1.42 3.56 2.8 6.21 4.07l1.34.59c2.12.94 3.65 1.76 4.65 2.48 1.16.84 1.77 1.93 1.82 3.25 0 1.73-.62 3.03-1.84 3.93-1.14.84-2.7 1.26-4.64 1.26-1.34 0-2.49-.21-3.42-.64-.9-.42-1.89-1.09-2.93-2a.644.644 0 0 1-.18-.26l-1.18-2.73h-1.86v5.29c1.18.6 2.54 1.09 4.06 1.46 1.71.4 3.4.6 5.01.6 3.52 0 6.44-.76 8.68-2.25 2.17-1.45 3.23-3.54 3.23-6.37 0-1.41-.34-2.6-1.01-3.55m15.63 9.57a.723.723 0 0 1-.62-.72V79.79l-.87-.3-7.85 2.34v1.06l3.32 2.41c.18.14.29.35.29.58v19.98c0 .36-.26.67-.62.72l-3.59.52v1.43h13.48v-1.43l-3.54-.52Zm-.88-40.56c-.57-.58-1.42-.85-2.58-.85-1.07 0-2.01.39-2.91 1.18-.86.78-1.29 1.67-1.29 2.74 0 .96.33 1.71.99 2.3.69.61 1.49.9 2.44.9 1.14 0 2.11-.37 2.96-1.13.83-.74 1.23-1.65 1.23-2.79 0-1.01-.28-1.78-.86-2.35m25.42 39.31c-.47.19-1.06.37-1.79.53-1.18.27-2.15.4-2.98.4-1.55 0-2.32-.7-2.71-1.28-.49-.74-.79-1.81-.93-3.26-.14-1.34-.19-3.39-.19-6.26v-12.2c0-.4.33-.73.73-.73h8.08V80.1h-8.24c-.41 0-.73-.32-.73-.73v-6.44h-2.01c-.89 3.03-1.6 4.98-2.16 5.93-.52.85-1.15 1.41-1.85 1.7-.54.22-1.52.52-2.98.9v1.06h3.32c.41 0 .73.33.73.73v18.23c0 2.74.49 4.74 1.44 5.95.91 1.18 2.39 1.74 4.51 1.74 1.57 0 3.24-.25 4.97-.76 1.45-.43 2.6-.98 3.41-1.66l-.6-1.43Zm21.57-25.23v2.14l3.36.47c.21.03.4.15.52.33.11.17.14.4.08.6l-6.29 21.06c-.09.31-.37.53-.69.53s-.61-.21-.7-.52l-1.32-4.39-5.84-16.59a.725.725 0 0 1 .58-.96l2.95-.51V80.1h-12.11v2.2l2.06.48c.22.05.42.21.51.43l10.43 25.27h.83a.731.731 0 0 1 .7.93c-.91 3.22-2.09 5.49-3.59 6.94-1.51 1.48-3.19 2.23-4.98 2.24-.72.02-1.41-.03-2.07-.15v3.92c.13.02.3.05.53.08 2.19.26 3.86 0 5.22-1.1.06-.05.12-.08.18-.11 1.51-.63 2.86-1.82 4.01-3.52 1.21-1.79 2.48-4.32 3.75-7.51.73-1.82 2.09-5.39 4.04-10.61 1.95-5.2 3.95-10.73 5.91-16.45.09-.25.3-.44.56-.48l2.19-.39V80.1h-10.8ZM87.07 91.4c-.08.06-.18.14-.07.21s.16-.04.17-.14c.08-.07.15-.14.23-.2.11-.1.22-.19.33-.29.24-.21.51-.4.73-.63 11.41-11.72 16.56-25.72 15.07-42.02-1.11-12.14-5.96-22.74-14.65-31.24C73.97 2.51 56.27-1.68 36.23 3.95c-1.76.5-3.28 1.42-4.49 2.8-1.44 1.64-1.47 3.44-.15 5.18.95 1.25 2.2 2.14 3.54 2.93 3.75 2.2 7.79 3.76 11.78 5.42 10.74 4.45 21.52 8.8 31.4 15.04 5.43 3.43 10.21 7.51 13.87 12.82 3.56 5.16 5.71 10.8 5.49 17.18-.18 5.19-1.63 10.07-3.77 14.77-1.72 3.8-3.96 7.29-6.34 10.69-.11.12-.21.23-.31.35-.06.09-.11.18-.17.27m318.24-38.05c-.06-.89-.04-1.79 0-2.69.02-.48-.14-.68-.63-.77-1.26-.24-2.51-.59-3.77-.83-.67-.13-.99-.45-1.22-1.11-5.35-15.55-10.73-31.08-16.08-46.63-.23-.69-.56-.84-1.22-.83-2.36.04-4.73.05-7.1 0-.81-.02-1.15.23-1.43 1.01-5.47 15.24-11.01 30.46-16.44 45.71-.47 1.33-1.22 1.82-2.43 2.08-.94.2-2.13.25-2.71.84-.65.67-.09 1.92-.23 2.9-.14 1.01.32 1.16 1.21 1.15 4.59-.04 9.17 0 13.76-.03 1.06 0 2.51.48 3.08-.21.54-.66.12-2.06.2-3.12.05-.65-.23-.86-.8-.99-1.26-.28-2.49-.65-3.75-.91-.6-.13-.77-.33-.57-.94.7-2.1 1.39-4.21 2.02-6.33.17-.57.46-.7.99-.69 5.91.02 11.83.02 17.74 0 .63 0 .88.21 1.04.78.49 1.68 1.02 3.35 1.53 5.03q.63 2.04-1.46 2.55c-1 .25-2.31.24-2.89.88-.61.67-.08 1.99-.2 3.02-.1.86.28.99 1.04.99 3.22-.04 6.45-.01 9.67-.01s6.53-.01 9.79.01c.63 0 .91-.12.86-.82m-21.44-17.87c-4.62-.04-9.23-.02-13.85-.01-.55 0-.96.09-.68-.77 2.62-8.12 5.19-16.26 7.77-24.39.03-.09.07-.18.19-.43.8 2.71 1.54 5.27 2.3 7.83 1.67 5.58 3.34 11.15 5.06 16.71.27.88.12 1.06-.79 1.06M151.62 54.16c6.38 0 12.76-.02 19.14.02.83 0 1.08-.25 1.18-1.06.42-3.16.93-6.3 1.42-9.45.09-.6.1-.99-.69-1.1-1.34-.19-2.67-.5-3.99-.82-.55-.13-.82 0-1.1.49-1.04 1.83-2.16 3.63-3.21 5.46-.3.52-.62.73-1.25.75-5.19.22-10.37.49-15.55.78-.57.03-.84-.01-.83-.69.02-6.27.02-12.54 0-18.82 0-.48.09-.71.64-.69 3.08.09 6.15.16 9.24.2.5 0 .67.22.79.65.35 1.31.77 2.61 1.1 3.92.12.46.28.66.78.65 1.29-.03 2.58-.03 3.87 0 .48 0 .71-.09.71-.64-.02-4.87-.02-9.75 0-14.62 0-.6-.24-.72-.77-.71-1.22.03-2.44.03-3.65 0-.55-.02-.82.13-.96.71-.31 1.29-.73 2.54-1.06 3.82-.14.53-.38.71-.95.73-3.01.08-6.01.21-9.01.35-.57.03-.73-.15-.73-.71.02-5.81.01-11.61 0-17.42 0-.51.05-.73.7-.7 4.61.23 9.23.4 13.84.56.58.02.91.2 1.13.74.56 1.36 1.19 2.68 1.75 4.04.22.54.51.77 1.12.75 1.32-.05 2.65-.08 3.98 0 .9.06.99-.31.91-1.06-.3-2.96-.6-5.91-.81-8.88-.06-.81-.33-.99-1.1-.98-7.1.03-14.19.02-21.29.02-4.77 0-9.53.02-14.3-.02-.76 0-1.1.12-1.03.98.08.96.08 1.94 0 2.9-.07.84.32 1.03 1.04 1.08 1 .07 1.99.32 2.99.33 1.02.01 1.18.47 1.18 1.37-.03 13.08-.02 26.16-.02 39.25 0 2.45 0 2.43-2.41 3-.96.23-2.25.1-2.8.81-.55.71-.08 1.94-.18 2.93-.08.84.19 1.08 1.05 1.08 6.38-.04 12.76-.02 19.14-.02m86.06.02c5.88 0 11.76 0 17.63.01.61 0 .97-.08 1.1-.8.66-3.7 1.34-7.39 2.07-11.08.11-.57-.06-.76-.52-.94-.9-.34-1.82-.67-2.68-1.1-.77-.38-1.2-.32-1.67.49-1.28 2.19-2.69 4.31-4.01 6.48-.33.54-.68.79-1.33.83-4.36.27-8.72.57-13.07.94-.79.07-.89-.18-.88-.84.01-13.62.01-27.24 0-40.86 0-.66.22-.87.83-.92 1.53-.13 3.06-.35 4.59-.47.57-.04.72-.24.71-.78-.03-1.32-.03-2.65 0-3.98 0-.51-.15-.68-.67-.68-6.63.01-13.26.01-19.89 0-.52 0-.67.17-.66.67.03 1.36.04 2.72 0 4.08-.02.55.21.65.68.69 1 .1 1.99.32 2.98.35 1.06.03 1.43.37 1.43 1.52-.05 12.94-.03 25.88-.03 38.81q0 2.25-2.21 2.74c-.98.22-2.27.16-2.84.76-.64.67-.1 1.99-.21 3.01-.09.84.19 1.08 1.05 1.07 5.88-.04 11.76-.02 17.63-.02" class="cls-1"/><path d="M90.06 77.95c.13-.31.28-.61.39-.92 1.62-5 1.46-9.95-.61-14.78-2.27-5.31-6.17-9.25-10.77-12.56-6.76-4.86-14.36-7.96-22.24-10.45-7.57-2.39-15.14-4.76-22.33-8.17-4.02-1.91-7.96-3.95-11.22-7.05-4.12-3.92-4.92-8.44-.78-12.77.1-.1.18-.22.01-.43-.38.01-.65.31-.95.53-2.45 1.76-4.71 3.74-6.82 5.89-3.33 3.38-3.54 7.65-.53 11.3 1.78 2.17 4.03 3.76 6.48 5.06 7.54 4.01 15.61 6.55 23.85 8.6 6.38 1.59 12.9 2.61 19.21 4.54 6.51 1.99 12.76 4.54 18.1 8.86 7.14 5.78 10.31 13.06 8.23 22.36" class="cls-1"/><path d="M8.22 25.59c-1.29 1.82-2.4 3.7-3.26 5.7-2.87 6.64-1.55 13.31 4.96 17.59 2.89 1.9 6.12 2.9 9.38 3.86 9.16 2.69 18.59 3.64 28.04 4.52 5.03.47 10.02 1.17 14.93 2.37 5.84 1.43 11.46 3.41 16.31 7.09 2.94 2.23 5.19 4.99 6.39 8.55.73 2.18.85 4.41.73 6.68.46-1.21.53-2.49.48-3.74-.17-4.29-1.89-7.94-4.76-11.1-4.09-4.49-9.3-7.21-14.83-9.39-7.19-2.84-14.74-4.31-22.32-5.62-9.4-1.62-18.66-3.74-27.39-7.72-5.4-2.46-8.64-6.56-9.13-12.63-.17-2.08.09-4.12.46-6.17" class="cls-1"/><path d="M81.43 87.04c.63-3.95-.22-7.55-2.67-10.74-2.73-3.57-6.48-5.67-10.59-7.22-6.81-2.57-13.95-3.38-21.15-3.77-5.4-.29-10.81.04-16.21-.5-6.82-.68-13.29-2.35-19.08-6.2-6.47-4.3-9.92-10.15-9.53-18.05.03-.7.13-1.4.2-2.09-.84 2.09-1.31 4.24-1.73 6.41-1.04 5.41.39 10.16 3.94 14.25 3.3 3.79 7.72 5.84 12.41 7.34 6.36 2.04 12.93 2.45 19.54 2.15 7.05-.32 14.09-.73 21.13.04 4.93.54 9.78 1.46 14.27 3.67 6.09 3 9.78 7.57 9.47 14.72" class="cls-1"/><path d="M.01 55.55c0-.8 0-1.6.02-2.4 0-.29-.16-.64.23-.83.88 5.27 3.19 9.86 6.82 13.73 5.02 5.38 11.41 8.27 18.51 9.7 5.32 1.07 10.67.83 16.04.36 7.88-.69 15.74-.81 23.46 1.36 3.27.92 6.35 2.26 8.82 4.68 3.64 3.57 4.45 8.23 2.12 12.79-2.47 4.82-6.48 7.76-11.72 8.94-16.73 3.77-31.95.49-45.31-10.31C8.85 85.37 2.81 74.63.66 61.74a51.32 51.32 0 0 1-.64-6.19m87.53 35.23c2.38-3.4 4.62-6.89 6.34-10.69 2.14-4.7 3.58-9.58 3.77-14.77.22-6.38-1.93-12.02-5.49-17.18-3.66-5.3-8.44-9.39-13.87-12.82-9.89-6.25-20.67-10.59-31.4-15.04-4-1.66-8.04-3.22-11.78-5.42-1.33-.78-2.59-1.68-3.54-2.93-1.32-1.74-1.28-3.54.15-5.18 1.21-1.38 2.73-2.31 4.49-2.8 20.05-5.63 37.75-1.44 52.65 13.13 8.69 8.5 13.54 19.09 14.65 31.24 1.49 16.31-3.66 30.31-15.07 42.02-.22.23-.49.42-.73.63-.06-.07-.12-.13-.18-.2m317.78-37.42c-.06-.89-.04-1.79 0-2.69.02-.48-.14-.68-.63-.77-1.26-.24-2.51-.59-3.77-.83-.67-.13-.99-.45-1.22-1.11-5.35-15.55-10.73-31.08-16.08-46.63-.23-.69-.56-.84-1.22-.83-2.36.04-4.73.05-7.1 0-.81-.02-1.15.23-1.43 1.01-5.47 15.24-11.01 30.46-16.44 45.71-.47 1.33-1.22 1.82-2.43 2.08-.94.2-2.13.25-2.71.84-.65.67-.09 1.92-.23 2.9-.14 1.01.32 1.16 1.21 1.15 4.59-.04 9.17 0 13.76-.03 1.06 0 2.51.48 3.08-.21.54-.66.12-2.06.2-3.12.05-.65-.23-.86-.8-.99-1.26-.28-2.49-.65-3.75-.91-.6-.13-.77-.33-.57-.94.7-2.1 1.39-4.21 2.02-6.33.17-.57.46-.7.99-.69 5.91.02 11.83.02 17.74 0 .63 0 .88.21 1.04.78.49 1.68 1.02 3.35 1.53 5.03q.63 2.04-1.46 2.55c-1 .25-2.31.24-2.89.88-.61.67-.08 1.99-.2 3.02-.1.86.28.99 1.04.99 3.22-.04 6.45-.01 9.67-.01s6.53-.01 9.79.01c.63 0 .91-.12.86-.82m-21.44-17.87c-4.62-.04-9.23-.02-13.85-.01-.55 0-.96.09-.68-.77 2.62-8.12 5.19-16.26 7.77-24.39.03-.09.07-.18.19-.43.8 2.71 1.54 5.27 2.3 7.83 1.67 5.58 3.34 11.15 5.06 16.71.27.88.12 1.06-.79 1.06M151.62 54.16c-6.38 0-12.76-.02-19.14.02-.86 0-1.14-.24-1.05-1.08.1-.99-.37-2.22.18-2.93s1.84-.58 2.8-.81c2.4-.57 2.41-.55 2.41-3 0-13.08 0-26.16.02-39.25 0-.91-.16-1.36-1.18-1.37-1-.01-1.99-.26-2.99-.33-.72-.05-1.11-.24-1.04-1.08.08-.96.08-1.94 0-2.9-.08-.86.27-.98 1.03-.98 4.77.03 9.53.02 14.3.02 7.1 0 14.19.01 21.29-.02.77 0 1.04.17 1.1.98.22 2.96.51 5.92.81 8.88.08.75 0 1.11-.91 1.06-1.32-.08-2.65-.05-3.98 0-.6.02-.89-.2-1.12-.75-.55-1.36-1.19-2.68-1.75-4.04-.22-.54-.55-.72-1.13-.74-4.61-.16-9.23-.34-13.84-.56-.65-.03-.7.18-.7.7 0 5.81.01 11.61 0 17.42 0 .56.16.74.73.71 3-.14 6.01-.27 9.01-.35.57-.01.81-.19.95-.73.33-1.28.75-2.54 1.06-3.82.14-.58.41-.73.96-.71 1.22.04 2.44.03 3.65 0 .53-.01.77.11.77.71-.02 4.87-.02 9.75 0 14.62 0 .55-.23.65-.71.64-1.29-.02-2.58-.03-3.87 0-.5.01-.66-.19-.78-.65-.34-1.32-.75-2.61-1.1-3.92-.12-.44-.29-.64-.79-.65-3.08-.04-6.16-.12-9.24-.2-.55-.02-.64.22-.64.69.01 6.27.02 12.54 0 18.82 0 .68.26.72.83.69 5.18-.29 10.36-.55 15.55-.78.63-.03.95-.24 1.25-.75 1.05-1.83 2.16-3.63 3.21-5.46.28-.49.55-.63 1.1-.49 1.32.32 2.65.62 3.99.82.79.11.79.5.69 1.1-.49 3.15-1 6.29-1.42 9.45-.11.81-.35 1.06-1.18 1.06-6.38-.04-12.76-.02-19.14-.02M195.35 0c1.15 0 2.31 0 3.46.01 3.98.24 7.9.75 11.73 1.92.99.3 1.42.73 1.38 1.86-.1 2.83-.06 5.66-.02 8.5 0 .71-.19.93-.9.89-1.21-.07-2.68.35-3.57-.2-.83-.51-1.07-2.01-1.55-3.08-.4-.88-.85-1.74-1.15-2.65-.3-.91-.9-1.42-1.75-1.72-3.06-1.09-6.17-1.59-9.36-.57-5.04 1.61-6.68 6.67-3.56 10.98 1.41 1.96 3.41 3.25 5.37 4.57 2.59 1.74 5.38 3.13 8.08 4.68 2.55 1.47 4.93 3.17 7.21 5.03 6.62 5.4 5.55 15.43.14 20.11-2.87 2.48-6.24 3.77-9.91 4.31-6.85 1.01-13.56.07-20.14-1.91-1.73-.52-1.71-.58-1.71-2.37 0-3.44.02-6.88-.01-10.32 0-.7.19-.95.91-.9 1.1.07 2.42-.3 3.27.18.86.49.88 1.94 1.3 2.95.35.82.69 1.66.92 2.52.77 2.87 2.86 4.26 5.54 4.94 2.87.72 5.79 1.02 8.71.22 6.46-1.77 7.51-9.29 3.27-13.06-2.51-2.23-5.3-4.02-8.2-5.67-3.83-2.17-7.73-4.23-11.01-7.24-4.22-3.88-5.75-9.28-3.9-14.34 1.34-3.65 4.1-5.98 7.49-7.62 2.5-1.21 5.18-1.85 7.96-2.03m84.54.02h3.46c4.01.24 7.97.76 11.83 1.93 1.02.31 1.38.79 1.34 1.88-.09 2.76-.05 5.52-.01 8.28.01.78-.11 1.17-1.02 1.09-1.17-.1-2.62.34-3.46-.21-.84-.54-1.07-2.01-1.56-3.08-.36-.78-.77-1.55-1.02-2.36-.37-1.24-1.23-1.84-2.39-2.21-2.99-.95-6.01-1.35-9.06-.31-4.63 1.59-6.25 6.19-3.7 10.39.78 1.28 1.85 2.27 3.02 3.17 2.75 2.14 5.77 3.85 8.83 5.5 3.35 1.81 6.49 3.9 9.42 6.35 6.47 5.42 5.52 16.31-1.54 21.03-2.96 1.98-6.26 3.01-9.74 3.36-6.42.65-12.71-.21-18.87-2.08-.27-.08-.53-.22-.8-.3-.67-.2-.93-.56-.92-1.32.05-3.65.04-7.31 0-10.97 0-.76.12-1.12.98-1.03 1.1.11 2.46-.41 3.24.2.72.57.84 1.91 1.23 2.91.33.87.74 1.72.98 2.61.76 2.84 2.85 4.2 5.48 4.86 2.91.74 5.87 1.07 8.81.2 2.78-.82 4.79-2.53 5.5-5.48.72-2.99-.12-5.5-2.36-7.59-2.4-2.24-5.16-3.97-8.01-5.56-2.94-1.64-5.89-3.26-8.61-5.24-3.06-2.23-5.7-4.85-6.72-8.65-1.65-6.1 1.08-11.91 6.96-14.97 2.73-1.43 5.65-2.22 8.72-2.43m51.83.03c1.23 0 2.45 0 3.68-.01 4.07.16 7.99 1.18 11.92 2.14.54.13.68.33.65.87-.21 3.47-.4 6.93-.54 10.4-.03.66-.22.86-.87.84-1.4-.04-2.8-.04-4.19 0-.53.02-.75-.2-.91-.66-.58-1.65-1.21-3.29-1.78-4.94-.2-.57-.53-.97-1.03-1.3-2.75-1.85-5.85-2.03-8.98-1.81-5.3.37-8.99 3.28-11.47 7.79-4.65 8.44-3.85 22.39 1.66 30.29 2.28 3.26 5.22 5.63 9.27 6.23 3.01.44 6.01.3 8.87-.89 1.55-.65 2.7-1.68 3.28-3.33.51-1.45 1.18-2.84 1.74-4.27.21-.53.47-.8 1.09-.77 1.11.06 2.22.04 3.33 0 .52-.01.67.18.67.69-.02 3.33 0 6.67-.02 10 0 .25.12.54-.34.64-3.25.71-6.39 1.86-9.66 2.47-6.49 1.22-12.92 1.23-19.1-1.4-7.2-3.07-11.8-8.51-13.69-16.05-2.06-8.22-1.24-16.19 3.33-23.46C313.96 5.02 321.85.75 331.74.05m-94.05 54.11c-5.88 0-11.76-.02-17.63.02-.86 0-1.14-.23-1.05-1.07.11-1.03-.42-2.34.21-3.01.57-.61 1.86-.55 2.84-.76q2.21-.49 2.21-2.74c0-12.94-.02-25.88.03-38.81 0-1.15-.37-1.48-1.43-1.52-1-.03-1.99-.26-2.98-.35-.46-.04-.69-.14-.68-.69.04-1.36.03-2.72 0-4.08-.01-.51.14-.68.66-.67 6.63.02 13.26.02 19.89 0 .52 0 .68.17.67.68-.03 1.32-.03 2.65 0 3.98.01.54-.14.74-.71.78-1.53.12-3.06.33-4.59.47-.61.05-.83.26-.83.92.02 13.62.02 27.24 0 40.86 0 .67.09.91.88.84 4.35-.36 8.71-.66 13.07-.94.66-.04 1.01-.29 1.33-.83 1.32-2.17 2.73-4.29 4.01-6.48.47-.81.9-.88 1.67-.49.86.43 1.77.76 2.68 1.1.46.18.64.37.52.94a584.3 584.3 0 0 0-2.07 11.08c-.13.71-.49.8-1.1.8-5.88-.02-11.75-.01-17.63-.01" class="cls-1"/><path d="M90.06 77.95c2.08-9.3-1.08-16.58-8.23-22.36-5.35-4.33-11.6-6.87-18.1-8.86-6.3-1.93-12.82-2.96-19.21-4.54-8.24-2.05-16.31-4.6-23.85-8.6-2.45-1.3-4.7-2.89-6.48-5.06-3.01-3.66-2.8-7.92.53-11.3 2.12-2.15 4.38-4.13 6.82-5.89.3-.22.57-.52.95-.53.17.21.08.33-.01.43-4.14 4.34-3.34 8.85.78 12.77 3.26 3.1 7.19 5.14 11.22 7.05 7.19 3.42 14.76 5.78 22.33 8.17 7.88 2.49 15.48 5.59 22.24 10.45 4.6 3.31 8.5 7.25 10.77 12.56 2.07 4.84 2.23 9.78.61 14.78-.1.32-.26.62-.39.92" class="cls-1"/><path d="M8.22 25.59c-.37 2.04-.63 4.09-.46 6.17.49 6.06 3.73 10.17 9.13 12.63 8.73 3.98 17.99 6.1 27.39 7.72 7.58 1.31 15.13 2.78 22.32 5.62 5.53 2.18 10.74 4.9 14.83 9.39 2.87 3.16 4.59 6.81 4.76 11.1.05 1.25-.02 2.53-.48 3.74.11-2.28 0-4.5-.73-6.68-1.19-3.56-3.45-6.33-6.39-8.55-4.86-3.68-10.47-5.66-16.31-7.09-4.91-1.21-9.9-1.9-14.93-2.37-9.45-.88-18.88-1.84-28.04-4.52-3.26-.96-6.49-1.96-9.38-3.86C3.42 44.62 2.1 37.95 4.97 31.3c.86-2 1.97-3.88 3.26-5.7" class="cls-1"/><path d="M81.43 87.04c.31-7.15-3.38-11.72-9.47-14.72-4.49-2.21-9.33-3.13-14.27-3.67-7.04-.77-14.08-.36-21.13-.04-6.61.3-13.18-.12-19.54-2.15-4.69-1.5-9.11-3.55-12.41-7.34C1.06 55.04-.36 50.28.67 44.87c.42-2.17.89-4.32 1.73-6.41-.07.7-.17 1.39-.2 2.09-.39 7.9 3.06 13.75 9.53 18.05 5.79 3.86 12.26 5.53 19.08 6.2 5.4.54 10.81.21 16.21.5 7.2.39 14.34 1.2 21.15 3.77 4.11 1.55 7.86 3.65 10.59 7.22 2.44 3.19 3.3 6.8 2.67 10.74m6.3 3.95c-.11.1-.22.19-.33.29-.05-.05-.1-.1-.16-.14.1-.12.21-.23.31-.35.06.07.12.13.18.2m-.56.49c-.01.1-.06.21-.17.14-.11-.07-.01-.16.07-.21l.1.07" class="cls-1"/><path d="M87.07 91.4c.06-.09.11-.18.17-.27.06.04.11.09.16.14-.07.07-.15.13-.23.2a.36.36 0 0 0-.1-.07" class="cls-1"/></g></svg>